<svg width="204" height="204" viewBox="0 0 204 204" fill="none" xmlns="http://www.w3.org/2000/svg">
<path d="M61.959 164C69.2519 176.914 78.7715 188.208 89.9453 197.262C65.1684 194.222 43.2897 181.936 27.9434 164H61.959ZM176.057 164C160.71 181.936 138.831 194.222 114.054 197.262C125.228 188.208 134.747 176.914 142.04 164H176.057ZM99 196.593C87.0268 188.094 76.7558 176.989 68.8955 164H99V196.593ZM135.104 164C127.244 176.989 116.973 188.094 105 196.593V164H135.104ZM18.1729 112C19.6603 124.946 30.6553 135 44 135H50.1943C52.3212 143.049 55.216 150.748 58.791 158H23.207C13.601 144.785 7.30524 129.056 5.52148 112H18.1729ZM99 158H65.5049C61.7209 150.8 58.6514 143.097 56.3994 135H99V158ZM147.601 135C145.349 143.097 142.279 150.8 138.495 158H105V135H147.601ZM198.479 112C196.695 129.056 190.398 144.785 180.792 158H145.209C148.784 150.748 151.679 143.049 153.806 135H160C173.345 135 184.34 124.946 185.827 112H198.479ZM160 89C171.046 89 180 97.9543 180 109C180 120.046 171.046 129 160 129H136V89H160ZM87.1963 94.1797C89.0722 94.1797 90.7804 94.4176 92.3203 94.8936C93.8603 95.3696 95.1906 96.0562 96.3105 96.9521C97.4303 97.848 98.2981 98.8978 98.9141 100.102C99.53 101.306 99.8659 102.65 99.9219 104.134C99.9219 104.386 99.8239 104.596 99.6279 104.764C99.4599 104.932 99.25 105.016 98.998 105.016H94.21C93.874 105.016 93.6081 104.932 93.4121 104.764C93.2162 104.596 93.0622 104.316 92.9502 103.924C92.5303 102.272 91.8303 101.139 90.8506 100.522C89.8706 99.9065 88.6522 99.5977 87.1963 99.5977C85.4603 99.5977 84.0881 100.074 83.0801 101.026C82.0722 101.978 81.5264 103.561 81.4424 105.772C81.3584 108.068 81.3584 110.42 81.4424 112.828C81.5264 115.04 82.0721 116.622 83.0801 117.574C84.0881 118.526 85.4603 119.002 87.1963 119.002C88.6522 119.002 89.8706 118.694 90.8506 118.078C91.8584 117.434 92.5582 116.3 92.9502 114.676C93.0622 114.256 93.2161 113.976 93.4121 113.836C93.6081 113.668 93.874 113.584 94.21 113.584H98.998C99.25 113.584 99.46 113.668 99.6279 113.836C99.8239 114.004 99.9218 114.214 99.9219 114.466C99.8659 115.95 99.5301 117.294 98.9141 118.498C98.2981 119.702 97.4305 120.752 96.3105 121.648C95.1906 122.544 93.8602 123.23 92.3203 123.706C90.7804 124.182 89.0722 124.42 87.1963 124.42C84.5645 124.42 82.3245 123.986 80.4766 123.118C78.6566 122.222 77.2424 120.934 76.2344 119.254C75.2264 117.546 74.6657 115.474 74.5537 113.038C74.5257 111.89 74.5117 110.658 74.5117 109.342C74.5117 108.026 74.5257 106.765 74.5537 105.562C74.6658 103.154 75.2264 101.11 76.2344 99.4297C77.2704 97.7219 78.7127 96.4204 80.5605 95.5244C82.4085 94.6285 84.6204 94.1797 87.1963 94.1797ZM116.317 94.1797C118.193 94.1797 119.901 94.4176 121.441 94.8936C122.981 95.3696 124.312 96.0562 125.432 96.9521C126.551 97.848 127.419 98.8978 128.035 100.102C128.651 101.306 128.987 102.65 129.043 104.134C129.043 104.386 128.945 104.596 128.749 104.764C128.581 104.932 128.371 105.016 128.119 105.016H123.331C122.995 105.016 122.729 104.932 122.533 104.764C122.337 104.596 122.183 104.316 122.071 103.924C121.651 102.272 120.951 101.139 119.972 100.522C118.992 99.9065 117.773 99.5977 116.317 99.5977C114.581 99.5977 113.209 100.074 112.201 101.026C111.193 101.978 110.647 103.561 110.563 105.772C110.479 108.068 110.479 110.42 110.563 112.828C110.647 115.04 111.193 116.622 112.201 117.574C113.209 118.526 114.581 119.002 116.317 119.002C117.773 119.002 118.992 118.694 119.972 118.078C120.98 117.434 121.679 116.3 122.071 114.676C122.183 114.256 122.337 113.976 122.533 113.836C122.729 113.668 122.995 113.584 123.331 113.584H128.119C128.371 113.584 128.581 113.668 128.749 113.836C128.945 114.004 129.043 114.214 129.043 114.466C128.987 115.95 128.651 117.294 128.035 118.498C127.419 119.702 126.552 120.752 125.432 121.648C124.312 122.544 122.981 123.23 121.441 123.706C119.901 124.182 118.193 124.42 116.317 124.42C113.686 124.42 111.446 123.986 109.598 123.118C107.778 122.222 106.363 120.934 105.355 119.254C104.347 117.546 103.787 115.474 103.675 113.038C103.647 111.89 103.633 110.658 103.633 109.342C103.633 108.026 103.647 106.765 103.675 105.562C103.787 103.154 104.348 101.11 105.355 99.4297C106.391 97.7219 107.834 96.4204 109.682 95.5244C111.53 94.6285 113.741 94.1797 116.317 94.1797ZM46.0645 94.5996C46.4841 94.5997 46.7923 94.7117 46.9883 94.9355C47.2123 95.1595 47.3662 95.3284 47.4502 95.4404L55.1777 109.678L62.9902 95.4404C63.0462 95.3284 63.1722 95.1595 63.3682 94.9355C63.5921 94.7118 63.9142 94.5996 64.334 94.5996H68.2402C68.548 94.5997 68.8002 94.6977 68.9961 94.8936C69.1921 95.0896 69.29 95.3424 69.29 95.6504V122.95C69.29 123.258 69.192 123.51 68.9961 123.706C68.8001 123.902 68.5481 124 68.2402 124H63.9561C63.6761 124 63.4382 123.902 63.2422 123.706C63.0462 123.51 62.9483 123.258 62.9482 122.95V105.982L57.6143 115.978C57.4743 116.23 57.2924 116.454 57.0684 116.65C56.8444 116.846 56.5495 116.944 56.1855 116.944H54.2119C53.8481 116.944 53.554 116.846 53.3301 116.65C53.1061 116.454 52.9242 116.23 52.7842 115.978L47.4502 105.982V122.95C47.4502 123.258 47.3521 123.51 47.1562 123.706C46.9603 123.902 46.7222 124 46.4424 124H42.1582C41.8783 124 41.6263 123.902 41.4023 123.706C41.2064 123.51 41.1084 123.258 41.1084 122.95V95.6504C41.1084 95.3424 41.2063 95.0896 41.4023 94.8936C41.6262 94.6978 41.8784 94.5996 42.1582 94.5996H46.0645ZM157.978 94.1797C156.046 94.1797 154.352 94.4737 152.896 95.0615C151.441 95.6495 150.222 96.4341 149.242 97.4141C148.262 98.3941 147.52 99.5004 147.016 100.732C146.54 101.964 146.302 103.224 146.302 104.512C146.302 105.94 146.568 107.242 147.1 108.418C147.632 109.594 148.374 110.616 149.326 111.484C150.278 112.352 151.356 113.038 152.56 113.542C153.764 114.018 155.038 114.284 156.382 114.34C156.886 114.368 157.39 114.326 157.894 114.214L151.804 122.53C151.776 122.586 151.734 122.656 151.678 122.74C151.65 122.824 151.636 122.936 151.636 123.076C151.636 123.328 151.72 123.552 151.888 123.748C152.056 123.916 152.266 124 152.518 124H157.264C157.684 124 158.006 123.902 158.23 123.706C158.454 123.482 158.622 123.3 158.734 123.16L165.79 113.416C166.406 112.548 167.022 111.652 167.638 110.728C168.254 109.804 168.772 108.81 169.192 107.746C169.612 106.682 169.822 105.534 169.822 104.302C169.822 102.93 169.57 101.642 169.066 100.438C168.562 99.2065 167.806 98.1281 166.798 97.2041C165.79 96.2521 164.544 95.5095 163.06 94.9775C161.604 94.4457 159.909 94.1797 157.978 94.1797ZM158.02 99.5977C158.943 99.5977 159.784 99.7936 160.54 100.186C161.296 100.578 161.884 101.138 162.304 101.866C162.752 102.594 162.976 103.476 162.976 104.512C162.976 105.52 162.752 106.388 162.304 107.116C161.884 107.844 161.296 108.404 160.54 108.796C159.784 109.188 158.944 109.384 158.02 109.384C157.124 109.384 156.298 109.188 155.542 108.796C154.786 108.404 154.184 107.844 153.736 107.116C153.316 106.388 153.106 105.52 153.106 104.512C153.106 103.476 153.316 102.594 153.736 101.866C154.184 101.138 154.786 100.578 155.542 100.186C156.298 99.7937 157.124 99.5977 158.02 99.5977ZM53.2891 60C50.6693 67.3427 48.7089 75.0374 47.4844 83H44C30.6553 83 19.6603 93.0538 18.1729 106H5.08398C5.02904 104.673 5 103.34 5 102C5 86.9379 8.50523 72.6862 14.752 60H53.2891ZM189.248 60C195.495 72.6862 199 86.9379 199 102C199 103.34 198.971 104.673 198.916 106H185.827C184.34 93.0538 173.345 83 160 83H156.516C155.291 75.0374 153.331 67.3427 150.711 60H189.248ZM99 83H53.5547C54.8443 75.003 56.9112 67.306 59.668 60H99V83ZM144.332 60C147.089 67.306 149.156 75.003 150.445 83H105V60H144.332ZM91.4131 6.56738C75.9483 18.6713 63.5233 35.0089 55.6055 54H17.9785C33.0793 28.166 59.9945 9.94261 91.4131 6.56738ZM99 54H62.123C70.3652 35.3692 83.202 19.6194 99 8.40625V54ZM105 8.40625C120.798 19.6194 133.635 35.3692 141.877 54H105V8.40625ZM112.586 6.56738C144.005 9.94234 170.921 28.1658 186.021 54H148.394C140.475 35.0089 128.051 18.6712 112.586 6.56738Z" fill="black"/>
</svg>
