<svg width="204" height="204" viewBox="0 0 204 204" fill="none" xmlns="http://www.w3.org/2000/svg">
<rect width="204" height="204" fill="#1E1E1E"/>
<rect width="204" height="204" fill="white"/>
<path d="M61.959 164C69.2519 176.914 78.7715 188.208 89.9453 197.262C65.1684 194.222 43.2897 181.936 27.9434 164H61.959ZM176.057 164C160.71 181.936 138.831 194.222 114.054 197.262C125.228 188.208 134.747 176.914 142.04 164H176.057ZM99 196.593C87.0268 188.094 76.7558 176.989 68.8955 164H99V196.593ZM135.104 164C127.244 176.989 116.973 188.094 105 196.593V164H135.104ZM18.1729 112C19.6603 124.946 30.6553 135 44 135H50.1943C52.3212 143.049 55.216 150.748 58.791 158H23.207C13.601 144.785 7.30524 129.056 5.52148 112H18.1729ZM99 158H65.5049C61.7209 150.8 58.6514 143.097 56.3994 135H99V158ZM147.601 135C145.349 143.097 142.279 150.8 138.495 158H105V135H147.601ZM198.479 112C196.695 129.056 190.398 144.785 180.792 158H145.209C148.784 150.748 151.679 143.049 153.806 135H160C173.345 135 184.34 124.946 185.827 112H198.479ZM160 89C171.046 89 180 97.9543 180 109C180 120.046 171.046 129 160 129H136V89H160ZM53.2891 60C50.6693 67.3427 48.7089 75.0374 47.4844 83H44C30.6553 83 19.6603 93.0538 18.1729 106H5.08398C5.02904 104.673 5 103.34 5 102C5 86.9379 8.50523 72.6862 14.752 60H53.2891ZM189.248 60C195.495 72.6862 199 86.9379 199 102C199 103.34 198.971 104.673 198.916 106H185.827C184.34 93.0538 173.345 83 160 83H156.516C155.291 75.0374 153.331 67.3427 150.711 60H189.248ZM99 83H53.5547C54.8443 75.003 56.9112 67.306 59.668 60H99V83ZM144.332 60C147.089 67.306 149.156 75.003 150.445 83H105V60H144.332ZM91.4131 6.56738C75.9483 18.6713 63.5233 35.0089 55.6055 54H17.9785C33.0793 28.166 59.9945 9.94261 91.4131 6.56738ZM99 54H62.123C70.3652 35.3692 83.202 19.6194 99 8.40625V54ZM105 8.40625C120.798 19.6194 133.635 35.3692 141.877 54H105V8.40625ZM112.586 6.56738C144.005 9.94234 170.921 28.1658 186.021 54H148.394C140.475 35.0089 128.051 18.6712 112.586 6.56738Z" fill="black"/>
<path d="M42.158 124C41.878 124 41.626 123.902 41.402 123.706C41.206 123.51 41.108 123.258 41.108 122.95V95.65C41.108 95.342 41.206 95.09 41.402 94.894C41.626 94.698 41.878 94.6 42.158 94.6H46.064C46.484 94.6 46.792 94.712 46.988 94.936C47.212 95.16 47.366 95.328 47.45 95.44L55.178 109.678L62.99 95.44C63.046 95.328 63.172 95.16 63.368 94.936C63.592 94.712 63.914 94.6 64.334 94.6H68.24C68.548 94.6 68.8 94.698 68.996 94.894C69.192 95.09 69.29 95.342 69.29 95.65V122.95C69.29 123.258 69.192 123.51 68.996 123.706C68.8 123.902 68.548 124 68.24 124H63.956C63.676 124 63.438 123.902 63.242 123.706C63.046 123.51 62.948 123.258 62.948 122.95V105.982L57.614 115.978C57.474 116.23 57.292 116.454 57.068 116.65C56.844 116.846 56.55 116.944 56.186 116.944H54.212C53.848 116.944 53.554 116.846 53.33 116.65C53.106 116.454 52.924 116.23 52.784 115.978L47.45 105.982V122.95C47.45 123.258 47.352 123.51 47.156 123.706C46.96 123.902 46.722 124 46.442 124H42.158ZM87.1961 124.42C84.5641 124.42 82.3241 123.986 80.4761 123.118C78.6561 122.222 77.2421 120.934 76.2341 119.254C75.2261 117.546 74.6661 115.474 74.5541 113.038C74.5261 111.89 74.5121 110.658 74.5121 109.342C74.5121 108.026 74.5261 106.766 74.5541 105.562C74.6661 103.154 75.2261 101.11 76.2341 99.43C77.2701 97.722 78.7121 96.42 80.5601 95.524C82.4081 94.628 84.6201 94.18 87.1961 94.18C89.0721 94.18 90.7801 94.418 92.3201 94.894C93.8601 95.37 95.1901 96.056 96.3101 96.952C97.4301 97.848 98.2981 98.898 98.9141 100.102C99.5301 101.306 99.8661 102.65 99.9221 104.134C99.9221 104.386 99.8241 104.596 99.6281 104.764C99.4601 104.932 99.2501 105.016 98.9981 105.016H94.2101C93.8741 105.016 93.6081 104.932 93.4121 104.764C93.2161 104.596 93.0621 104.316 92.9501 103.924C92.5301 102.272 91.8301 101.138 90.8501 100.522C89.8701 99.906 88.6521 99.598 87.1961 99.598C85.4601 99.598 84.0881 100.074 83.0801 101.026C82.0721 101.978 81.5261 103.56 81.4421 105.772C81.3581 108.068 81.3581 110.42 81.4421 112.828C81.5261 115.04 82.0721 116.622 83.0801 117.574C84.0881 118.526 85.4601 119.002 87.1961 119.002C88.6521 119.002 89.8701 118.694 90.8501 118.078C91.8581 117.434 92.5581 116.3 92.9501 114.676C93.0621 114.256 93.2161 113.976 93.4121 113.836C93.6081 113.668 93.8741 113.584 94.2101 113.584H98.9981C99.2501 113.584 99.4601 113.668 99.6281 113.836C99.8241 114.004 99.9221 114.214 99.9221 114.466C99.8661 115.95 99.5301 117.294 98.9141 118.498C98.2981 119.702 97.4301 120.752 96.3101 121.648C95.1901 122.544 93.8601 123.23 92.3201 123.706C90.7801 124.182 89.0721 124.42 87.1961 124.42ZM116.317 124.42C113.685 124.42 111.445 123.986 109.597 123.118C107.777 122.222 106.363 120.934 105.355 119.254C104.347 117.546 103.787 115.474 103.675 113.038C103.647 111.89 103.633 110.658 103.633 109.342C103.633 108.026 103.647 106.766 103.675 105.562C103.787 103.154 104.347 101.11 105.355 99.43C106.391 97.722 107.833 96.42 109.681 95.524C111.529 94.628 113.741 94.18 116.317 94.18C118.193 94.18 119.901 94.418 121.441 94.894C122.981 95.37 124.311 96.056 125.431 96.952C126.551 97.848 127.419 98.898 128.035 100.102C128.651 101.306 128.987 102.65 129.043 104.134C129.043 104.386 128.945 104.596 128.749 104.764C128.581 104.932 128.371 105.016 128.119 105.016H123.331C122.995 105.016 122.729 104.932 122.533 104.764C122.337 104.596 122.183 104.316 122.071 103.924C121.651 102.272 120.951 101.138 119.971 100.522C118.991 99.906 117.773 99.598 116.317 99.598C114.581 99.598 113.209 100.074 112.201 101.026C111.193 101.978 110.647 103.56 110.563 105.772C110.479 108.068 110.479 110.42 110.563 112.828C110.647 115.04 111.193 116.622 112.201 117.574C113.209 118.526 114.581 119.002 116.317 119.002C117.773 119.002 118.991 118.694 119.971 118.078C120.979 117.434 121.679 116.3 122.071 114.676C122.183 114.256 122.337 113.976 122.533 113.836C122.729 113.668 122.995 113.584 123.331 113.584H128.119C128.371 113.584 128.581 113.668 128.749 113.836C128.945 114.004 129.043 114.214 129.043 114.466C128.987 115.95 128.651 117.294 128.035 118.498C127.419 119.702 126.551 120.752 125.431 121.648C124.311 122.544 122.981 123.23 121.441 123.706C119.901 124.182 118.193 124.42 116.317 124.42Z" fill="black"/>
<path d="M152.518 124C152.266 124 152.056 123.916 151.888 123.748C151.72 123.552 151.636 123.328 151.636 123.076C151.636 122.936 151.65 122.824 151.678 122.74C151.734 122.656 151.776 122.586 151.804 122.53L157.894 114.214C157.39 114.326 156.886 114.368 156.382 114.34C155.038 114.284 153.764 114.018 152.56 113.542C151.356 113.038 150.278 112.352 149.326 111.484C148.374 110.616 147.632 109.594 147.1 108.418C146.568 107.242 146.302 105.94 146.302 104.512C146.302 103.224 146.54 101.964 147.016 100.732C147.52 99.5 148.262 98.394 149.242 97.414C150.222 96.434 151.44 95.65 152.896 95.062C154.352 94.474 156.046 94.18 157.978 94.18C159.91 94.18 161.604 94.446 163.06 94.978C164.544 95.51 165.79 96.252 166.798 97.204C167.806 98.128 168.562 99.206 169.066 100.438C169.57 101.642 169.822 102.93 169.822 104.302C169.822 105.534 169.612 106.682 169.192 107.746C168.772 108.81 168.254 109.804 167.638 110.728C167.022 111.652 166.406 112.548 165.79 113.416L158.734 123.16C158.622 123.3 158.454 123.482 158.23 123.706C158.006 123.902 157.684 124 157.264 124H152.518ZM158.02 109.384C158.944 109.384 159.784 109.188 160.54 108.796C161.296 108.404 161.884 107.844 162.304 107.116C162.752 106.388 162.976 105.52 162.976 104.512C162.976 103.476 162.752 102.594 162.304 101.866C161.884 101.138 161.296 100.578 160.54 100.186C159.784 99.794 158.944 99.598 158.02 99.598C157.124 99.598 156.298 99.794 155.542 100.186C154.786 100.578 154.184 101.138 153.736 101.866C153.316 102.594 153.106 103.476 153.106 104.512C153.106 105.52 153.316 106.388 153.736 107.116C154.184 107.844 154.786 108.404 155.542 108.796C156.298 109.188 157.124 109.384 158.02 109.384Z" fill="white"/>
</svg>
