<svg width="204" height="204" viewBox="0 0 204 204" fill="none" xmlns="http://www.w3.org/2000/svg">
<rect width="204" height="204" fill="#1E1E1E"/>
<rect width="204" height="204" fill="white"/>
<path d="M61.959 164C69.2519 176.914 78.7715 188.208 89.9453 197.262C65.1684 194.222 43.2897 181.936 27.9434 164H61.959ZM176.057 164C160.71 181.936 138.831 194.222 114.054 197.262C125.228 188.208 134.747 176.914 142.04 164H176.057ZM99 196.593C87.0268 188.094 76.7558 176.989 68.8955 164H99V196.593ZM135.104 164C127.244 176.989 116.973 188.094 105 196.593V164H135.104ZM18.1729 112C19.6603 124.946 30.6553 135 44 135H50.1943C52.3212 143.049 55.216 150.748 58.791 158H23.207C13.601 144.785 7.30524 129.056 5.52148 112H18.1729ZM99 158H65.5049C61.7209 150.8 58.6514 143.097 56.3994 135H99V158ZM147.601 135C145.349 143.097 142.279 150.8 138.495 158H105V135H147.601ZM198.479 112C196.695 129.056 190.398 144.785 180.792 158H145.209C148.784 150.748 151.679 143.049 153.806 135H160C173.345 135 184.34 124.946 185.827 112H198.479ZM160 89C171.046 89 180 97.9543 180 109C180 120.046 171.046 129 160 129H136V89H160ZM53.2891 60C50.6693 67.3427 48.7089 75.0374 47.4844 83H44C30.6553 83 19.6603 93.0538 18.1729 106H5.08398C5.02904 104.673 5 103.34 5 102C5 86.9379 8.50523 72.6862 14.752 60H53.2891ZM189.248 60C195.495 72.6862 199 86.9379 199 102C199 103.34 198.971 104.673 198.916 106H185.827C184.34 93.0538 173.345 83 160 83H156.516C155.291 75.0374 153.331 67.3427 150.711 60H189.248ZM99 83H53.5547C54.8443 75.003 56.9112 67.306 59.668 60H99V83ZM144.332 60C147.089 67.306 149.156 75.003 150.445 83H105V60H144.332ZM91.4131 6.56738C75.9483 18.6713 63.5233 35.0089 55.6055 54H17.9785C33.0793 28.166 59.9945 9.94261 91.4131 6.56738ZM99 54H62.123C70.3652 35.3692 83.202 19.6194 99 8.40625V54ZM105 8.40625C120.798 19.6194 133.635 35.3692 141.877 54H105V8.40625ZM112.586 6.56738C144.005 9.94234 170.921 28.1657 186.021 54H148.394C140.475 35.0089 128.051 18.6712 112.586 6.56738Z" fill="black"/>
<path d="M42.62 124C42.34 124 42.102 123.916 41.906 123.748C41.738 123.552 41.654 123.314 41.654 123.034V95.608C41.654 95.3 41.738 95.062 41.906 94.894C42.102 94.698 42.34 94.6 42.62 94.6H44.72C45.056 94.6 45.308 94.684 45.476 94.852C45.644 95.02 45.742 95.16 45.77 95.272L54.674 112.24L63.62 95.272C63.676 95.16 63.774 95.02 63.914 94.852C64.082 94.684 64.334 94.6 64.67 94.6H66.728C67.036 94.6 67.274 94.698 67.442 94.894C67.638 95.062 67.736 95.3 67.736 95.608V123.034C67.736 123.314 67.638 123.552 67.442 123.748C67.274 123.916 67.036 124 66.728 124H64.67C64.39 124 64.152 123.916 63.956 123.748C63.788 123.552 63.704 123.314 63.704 123.034V102.37L56.69 116.062C56.578 116.342 56.41 116.566 56.186 116.734C55.962 116.874 55.682 116.944 55.346 116.944H54.044C53.68 116.944 53.386 116.874 53.162 116.734C52.966 116.566 52.798 116.342 52.658 116.062L45.644 102.37V123.034C45.644 123.314 45.546 123.552 45.35 123.748C45.182 123.916 44.958 124 44.678 124H42.62ZM85.5837 124.42C83.0077 124.42 80.8657 123.944 79.1577 122.992C77.4777 122.04 76.2037 120.71 75.3357 119.002C74.4677 117.294 73.9917 115.306 73.9077 113.038C73.8797 111.89 73.8657 110.658 73.8657 109.342C73.8657 108.026 73.8797 106.766 73.9077 105.562C73.9917 103.294 74.4677 101.306 75.3357 99.598C76.2037 97.89 77.4777 96.56 79.1577 95.608C80.8657 94.656 83.0077 94.18 85.5837 94.18C87.5157 94.18 89.2097 94.446 90.6657 94.978C92.1217 95.51 93.3257 96.224 94.2777 97.12C95.2577 98.016 95.9997 99.024 96.5037 100.144C97.0077 101.236 97.2877 102.37 97.3437 103.546C97.3717 103.798 97.2877 104.008 97.0917 104.176C96.9237 104.344 96.7137 104.428 96.4617 104.428H94.1517C93.8997 104.428 93.6757 104.358 93.4797 104.218C93.3117 104.078 93.1857 103.826 93.1017 103.462C92.6257 101.278 91.7297 99.78 90.4137 98.968C89.1257 98.156 87.5017 97.75 85.5417 97.75C83.3017 97.75 81.5237 98.394 80.2077 99.682C78.8917 100.942 78.1777 102.972 78.0657 105.772C77.9817 108.068 77.9817 110.42 78.0657 112.828C78.1777 115.628 78.8917 117.672 80.2077 118.96C81.5237 120.22 83.3017 120.85 85.5417 120.85C87.5017 120.85 89.1257 120.444 90.4137 119.632C91.7297 118.82 92.6257 117.322 93.1017 115.138C93.1857 114.774 93.3117 114.522 93.4797 114.382C93.6757 114.242 93.8997 114.172 94.1517 114.172H96.4617C96.7137 114.172 96.9237 114.256 97.0917 114.424C97.2877 114.592 97.3717 114.802 97.3437 115.054C97.2877 116.23 97.0077 117.378 96.5037 118.498C95.9997 119.59 95.2577 120.584 94.2777 121.48C93.3257 122.376 92.1217 123.09 90.6657 123.622C89.2097 124.154 87.5157 124.42 85.5837 124.42ZM113.556 124.42C110.98 124.42 108.838 123.944 107.13 122.992C105.45 122.04 104.176 120.71 103.308 119.002C102.44 117.294 101.964 115.306 101.88 113.038C101.852 111.89 101.838 110.658 101.838 109.342C101.838 108.026 101.852 106.766 101.88 105.562C101.964 103.294 102.44 101.306 103.308 99.598C104.176 97.89 105.45 96.56 107.13 95.608C108.838 94.656 110.98 94.18 113.556 94.18C115.488 94.18 117.182 94.446 118.638 94.978C120.094 95.51 121.298 96.224 122.25 97.12C123.23 98.016 123.972 99.024 124.476 100.144C124.98 101.236 125.26 102.37 125.316 103.546C125.344 103.798 125.26 104.008 125.064 104.176C124.896 104.344 124.686 104.428 124.434 104.428H122.124C121.872 104.428 121.648 104.358 121.452 104.218C121.284 104.078 121.158 103.826 121.074 103.462C120.598 101.278 119.702 99.78 118.386 98.968C117.098 98.156 115.474 97.75 113.514 97.75C111.274 97.75 109.496 98.394 108.18 99.682C106.864 100.942 106.15 102.972 106.038 105.772C105.954 108.068 105.954 110.42 106.038 112.828C106.15 115.628 106.864 117.672 108.18 118.96C109.496 120.22 111.274 120.85 113.514 120.85C115.474 120.85 117.098 120.444 118.386 119.632C119.702 118.82 120.598 117.322 121.074 115.138C121.158 114.774 121.284 114.522 121.452 114.382C121.648 114.242 121.872 114.172 122.124 114.172H124.434C124.686 114.172 124.896 114.256 125.064 114.424C125.26 114.592 125.344 114.802 125.316 115.054C125.26 116.23 124.98 117.378 124.476 118.498C123.972 119.59 123.23 120.584 122.25 121.48C121.298 122.376 120.094 123.09 118.638 123.622C117.182 124.154 115.488 124.42 113.556 124.42Z" fill="black"/>
<path d="M153.106 124C152.854 124 152.644 123.916 152.476 123.748C152.336 123.552 152.266 123.328 152.266 123.076C152.266 122.936 152.28 122.824 152.308 122.74C152.364 122.656 152.406 122.586 152.434 122.53L158.86 113.584C158.16 113.752 157.404 113.836 156.592 113.836C155.024 113.808 153.624 113.528 152.392 112.996C151.16 112.464 150.11 111.75 149.242 110.854C148.374 109.93 147.716 108.894 147.268 107.746C146.82 106.598 146.596 105.394 146.596 104.134C146.596 102.902 146.806 101.698 147.226 100.522C147.674 99.346 148.332 98.282 149.2 97.33C150.096 96.378 151.202 95.622 152.518 95.062C153.834 94.474 155.388 94.18 157.18 94.18C158.944 94.18 160.484 94.46 161.8 95.02C163.144 95.552 164.264 96.294 165.16 97.246C166.084 98.17 166.756 99.22 167.176 100.396C167.624 101.572 167.848 102.79 167.848 104.05C167.848 105.198 167.68 106.248 167.344 107.2C167.008 108.152 166.602 109.006 166.126 109.762C165.678 110.518 165.23 111.218 164.782 111.862L156.718 123.16C156.606 123.3 156.452 123.482 156.256 123.706C156.06 123.902 155.766 124 155.374 124H153.106ZM157.18 110.434C158.356 110.434 159.434 110.182 160.414 109.678C161.422 109.146 162.22 108.418 162.808 107.494C163.396 106.542 163.69 105.408 163.69 104.092C163.69 102.776 163.396 101.656 162.808 100.732C162.22 99.78 161.422 99.052 160.414 98.548C159.434 98.016 158.356 97.75 157.18 97.75C156.032 97.75 154.968 98.016 153.988 98.548C153.008 99.052 152.224 99.78 151.636 100.732C151.048 101.656 150.754 102.776 150.754 104.092C150.754 105.408 151.048 106.542 151.636 107.494C152.224 108.418 153.008 109.146 153.988 109.678C154.968 110.182 156.032 110.434 157.18 110.434Z" fill="white"/>
</svg>
